<?xml version="1.0" encoding="utf-8"?>
<!-- Generator: Adobe Illustrator 23.0.1, SVG Export Plug-In . SVG Version: 6.00 Build 0)  -->
<svg version="1.1" id="Layer_1" xmlns="http://www.w3.org/2000/svg" xmlns:xlink="http://www.w3.org/1999/xlink" x="0px" y="0px"
	 viewBox="0 0 141 131" style="enable-background:new 0 0 141 131;" xml:space="preserve">
<g fill="#00bcd4">
	<path d="M111.5,15.9c0.1-1.2,0.1-1.9,0.1-2.7c3.5,0.1,17.9,6.6,24.8,11.1c-2,1.3-3.3-1.1-5.3-0.7c0.1,3.8,5,3.7,5.6,6.9
		c-2.9,4.6-4.3,5-21.1,6c2.6-2.1,5.4-2,8.1-2.5c2.6-0.4,5.4,0.2,7.9-1.5c-0.8-2.7-3.1-3.8-5.3-4.9c-11.4-5.9-23.5-10-35.9-13.5
		c0.4,2.1,0.4,2.1,2,3.2c0.5,1.3-2.4,0.6-1.2,2.4c2.3,2.9,5.1,5.6,8.1,8.1c5.2,4.3,11,7.9,15.7,12.9c3.4,3.7,3.8,7.6,2.2,12
		c-2,5.4-9.1,9.6-14.8,9.2c-5.1-0.4-8.1-2.9-9.8-7.9c-0.4-1.3-0.4-2.9-2.1-4.4C87.8,55,85.9,60.8,81,64.9c9.3,1.1,18.5,0.9,27.7,1
		c1,2.2-0.6,3.6-1,5.7c-11.2,3.2-22.9,5.8-31.5,15c1.9,1.5,4,1.1,5.9,1.2c5,0.2,10,0.2,15,0.3c1.8,0.1,3.7,0.2,5.5,0.5
		c7.4,1.2,10.9,5.6,10.4,13.2c-0.8,13.2-15.5,25.9-28.6,24.7c-9.9-0.9-15.3-6.2-16.3-16.3c-0.5-5-0.1-10,1.2-14.9
		c0.2-0.9,0.9-1.8,0.5-2.9c-7.5-4.9-7.5-4.9-10.2-10.5c-3.3,11.4-12.3,17.2-22,21.9c-8.8,4.3-16.1-0.6-16.5-10.4
		c-0.2-5,0.8-9.8,3.3-14.3c0,3.6-1.5,6.9-1.4,10.5c0.1,6.4,3.8,9.8,10.2,9.2c2.5-0.3,4.9-1.1,7.1-2.2c5.7-2.9,10.6-6.9,15.1-11.4
		c1.2-1.2,2.2-2.5,1.4-4.6c-2.8-3.5-7.9,0.2-11-3.4c-2.2-3.9-1.1-7.4,1.9-10.7c2.6-2.8,5.3-2.9,8.3-0.3c1.4,1.3,2.4,2.8,3.1,4.5
		c0.8,1.8,1.7,3.7,2.1,5.6c1.4,6,5.5,8.7,11.4,10c3.9-5.6,9-10,15.1-13.4c-0.1-0.4-0.3-0.7-0.4-1.1c-6.6,0-13.1,0-19.9,0
		c0-4.1,1.4-6.6,4.5-8.3c2.2-1.2,4.3-2.5,6.4-3.9c4.5-2.8,7.6-6.9,10.2-11.4c1.9-3.3,1.9-3.2,5.4-4.5c1.3,5.5,2.5,11.7,9.7,11.9
		c5,0.1,9.7-1.5,12.9-5.7c-0.8-3.2-3-4.9-5-6.6c-3.8-3.3-7.7-6.3-11.7-9.4c-6.1-4.8-11.4-10.2-15.4-16.6c-0.4-2.1,0.7-3.7,0.8-5.3
		c2.2-2.4,4.6-2.5,7.5-1.9C98.8,11.5,104.8,14,111.5,15.9z M73,92.5c-2.8,5.7-3.5,11.2-2.4,16.8c1,5.2,4.3,8.4,9.5,9.8
		c10.3,2.8,23.7-2.3,29.4-11.4c3-4.7,1.6-9.6-3.3-12.2c-1.7-0.9-3.4-1.2-5.3-1.4C91.5,93.4,82.2,94.3,73,92.5z"/>
	<path d="M60.5,15.5c6.8,4.3,12.8,9.5,19.4,14.3c-2,7.1-5.7,13.1-9.7,19.5c-7-5-13.8-9.8-20.5-14.6c0-1.9,1-3.2,1.8-4.6
		c1.8-3.1,3.7-6.1,4.6-9.6C56.7,18.3,58,16.2,60.5,15.5z"/>
	<path d="M11.5,52.1c0.8,2.6-0.5,3.9-0.9,5.5c-0.6,2.4-1.6,4.7-2,7.2c-1.2,6,0.8,8.1,7.2,7.9C22.1,69,26.1,62.9,31.2,58
		c4-3.9,8.1-7.7,13.8-9.4c3.1-0.9,5.5-0.8,7.8,1.3c2.4,2.2,1.4,4.7,0.8,7.5c-5.5-4.1-8.4-4.2-14.2-0.6c-3.4,2.1-6.3,4.8-9,7.8
		c-2.9,3.2-5.7,6.5-8.8,9.6c-2.5,2.5-5.5,4.8-9.3,3c-4-1.9-5.6-5.5-5.7-9.8C6.6,64,7.7,60.8,9,57.7C9.6,56.1,10.4,54.4,11.5,52.1z"
		/>
	<path d="M97.8,104.9c-1.7,4.9-3.6,9.1-6.8,12.9c-4.5-3.2-8.8-6.2-13.5-9.6c1.7-4.5,3.9-8.6,6.2-13C89,97.9,93.4,101,97.8,104.9z"
		/>
</g>
</svg>
