<?xml version="1.0" encoding="utf-8"?>
<!-- Generator: Adobe Illustrator 23.0.1, SVG Export Plug-In . SVG Version: 6.00 Build 0)  -->
<svg version="1.1" id="Layer_1" xmlns="http://www.w3.org/2000/svg" xmlns:xlink="http://www.w3.org/1999/xlink" x="0px" y="0px"
	 viewBox="0 0 100 100" style="enable-background:new 0 0 100 100;" xml:space="preserve">
<style type="text/css">
	.st0{fill:#3B579C;}
</style>
<g>
	<g>
		<path class="st0" d="M0.1,95.3c0-30.1,0-60.3,0-90.4c0,0,0.1-0.1,0.1-0.1c0.2-1.7,1.1-2.9,2.5-3.9c0.7-0.4,1.4-0.6,2.2-0.8
			c30.1,0,60.3,0,90.4,0c0,0,0.1,0.1,0.1,0.1c1.7,0.2,2.9,1.1,3.8,2.5c0.5,0.7,0.6,1.5,0.8,2.3c0,30.1,0,60.2,0,90.3
			c0,0-0.1,0.1-0.1,0.1c-0.2,1.7-1.1,2.9-2.5,3.8c-0.7,0.4-1.4,0.6-2.2,0.8c-8.7,0-17.4,0-26.1,0c0-0.1,0-0.2,0-0.3
			c0-12.7,0-25.3,0-38c0-0.4,0.2-0.5,0.5-0.5c4,0,8,0,11.9,0c0.3,0,0.5-0.1,0.6-0.5c0.6-4.7,1.2-9.4,1.8-14c0.1-0.5-0.1-0.6-0.5-0.6
			c-4.6,0-9.2,0-13.8,0c-0.4,0-0.5-0.1-0.5-0.5c0-2.9,0-5.8,0-8.7c0-0.8,0-1.6,0.1-2.4c0.3-2.9,1.7-4.5,4.6-5.1
			c0.9-0.2,1.9-0.3,2.8-0.3c2.5,0,4.9,0,7.4,0c0.4,0,0.6-0.1,0.5-0.5c0-4.1,0-8.3,0-12.4c0-0.5-0.1-0.6-0.6-0.7
			c-3-0.3-5.9-0.4-8.9-0.5c-2.7-0.1-5.4,0-8.1,0.7c-5,1.3-8.9,4.1-11.2,8.8c-1.6,3.1-2.2,6.5-2.2,9.9c0,3.7,0,7.4,0,11.1
			c0,0.5-0.1,0.6-0.6,0.6c-4,0-8,0-12,0c-0.5,0-0.6,0.1-0.6,0.6c0,4.7,0,9.3,0,14c0,0.4,0.1,0.5,0.6,0.5c4,0,8,0,11.9,0
			c0.5,0,0.6,0.1,0.6,0.7c0,12.5,0,25,0,37.4c0,0.2,0,0.5,0,0.7c-16.2,0-32.4,0-48.6,0c0,0-0.1-0.1-0.1-0.1
			c-1.7-0.2-2.9-1.1-3.8-2.5C0.5,96.8,0.3,96.1,0.1,95.3z"/>
	</g>
</g>
</svg>
